<?xml version="1.0" encoding="utf-8"?>
<!-- Generator: Adobe Illustrator 25.0.0, SVG Export Plug-In . SVG Version: 6.00 Build 0)  -->
<svg version="1.1" id="Layer_2_1_" xmlns="http://www.w3.org/2000/svg" xmlns:xlink="http://www.w3.org/1999/xlink" x="0px" y="0px"
	 width="1590px" height="500px" viewBox="0 0 1590 500" style="enable-background:new 0 0 1590 500;" xml:space="preserve">
<style type="text/css">
	.st0{fill:#FFFFFF;}
	.st1{fill:#0767B0;}
	.st2{fill:#00A44F;}
	.st3{fill:#EA2127;}
	.st4{fill:#221F1F;}
	.st5{enable-background:new    ;}
</style>
<g>
	<g>
		<rect x="689.7" y="63.6" class="st0" width="205.3" height="206.8"/>
		<path class="st1" d="M832.2,166.9c0-22.2-17.9-40.2-39.9-40.2s-39.9,18-39.9,40.2c0,17.6,11.3,32.6,27,38v-19.1
			c-5.9-4.1-9.8-11.1-9.8-18.9c0-12.7,10.2-23,22.8-23s22.8,10.3,22.8,23c0,7.9-4,14.9-10,19V205
			C820.9,199.7,832.2,184.6,832.2,166.9"/>
		<path class="st2" d="M860.8,166.9c0-38.1-30.6-68.9-68.4-68.9c-37.8,0-68.4,30.9-68.4,68.9c0,33.6,23.9,61.6,55.5,67.7v-17.7
			c-22.1-5.8-38.4-26-38.4-50c0-28.6,23-51.7,51.3-51.7s51.3,23.1,51.3,51.7c0,24.1-16.4,44.3-38.5,50.1v17.7
			C836.8,228.6,860.8,200.6,860.8,166.9"/>
		<path class="st3" d="M889.3,166.9c0-53.9-43.4-97.7-96.9-97.7s-96.9,43.7-96.9,97.7c0,49.5,36.6,90.4,84,96.8v-17.4
			c-37.9-6.2-66.9-39.4-66.9-79.3c0-44.4,35.7-80.4,79.8-80.4s79.8,36,79.8,80.4c0,40-29,73.2-67,79.4v17.4
			C852.6,257.4,889.3,216.5,889.3,166.9"/>
		<rect x="785.2" y="166.9" class="st4" width="14.3" height="103.4"/>
	</g>
	<g>
		<path class="st4" d="M154.9,183.5h64.3l-31.5-59.2L154.9,183.5z M182.2,96.4h48.4L309.7,239H248l-21.1-38.4H144L123.3,239H99.4
			L182.2,96.4z"/>
		<path class="st4" d="M373.5,212.8c0,13.6,0.5,13.5,25.3,13.5c26,0,50.7-3.9,50.7-24.1c0-27.3-42.3-27.7-61.4-27.7h-14.6V212.8
			L373.5,212.8z M373.5,157.5h14.6c16.7,0,51.3-1.2,51.3-24c0-19.2-20.3-24.2-44.1-24.2c-20.6,0-21.8,1.5-21.8,13.9V157.5z
			 M318,96.4h83.9c47.5,0,96.7,2.2,96.7,34.9c0,28-34.6,30.3-46.3,31.6v0.2c27.4-0.2,52.9,11.5,52.9,37.7
			c0,38.4-60.1,38.1-105.6,38.1H318V96.4z"/>
		<path class="st4" d="M667.7,137.5C654.8,116.6,626,107,599.1,107c-27.7,0-38.5,7.6-39.3,20.2c-1.5,27.1,124.3,17.8,120.7,71.6
			c-2.2,32.9-47.2,42.2-96.9,42.2c-26.9,0-63.4-4.3-70-5.1v-39.7c15,14.6,47.3,31.6,73.4,32.3c25.9,0.7,39.3-3.2,39.3-20.9
			c0-29.4-118.5-15.1-114.9-73.1c1.5-23.2,30.7-42.1,89.9-40.1c25,0.7,46.6,3,66.4,6.9L667.7,137.5L667.7,137.5z"/>
	</g>
	<g>
		<path class="st4" d="M1169.3,212.8c0,13.6,0.6,13.5,25.3,13.5c26,0,50.8-3.9,50.8-24.1c0-27.3-42.4-27.7-61.4-27.7h-14.6
			L1169.3,212.8L1169.3,212.8z M1169.3,157.5h14.6c16.7,0,51.3-1.2,51.3-24c0-19.2-20.3-24.2-44.1-24.2c-20.6,0-21.8,1.5-21.8,13.9
			V157.5z M1113.8,96.4h83.9c47.5,0,96.7,2.1,96.7,34.9c0,28-34.7,30.3-46.3,31.6v0.3c27.4-0.3,52.9,11.5,52.9,37.7
			c0,38.4-60.1,38.1-105.6,38.1h-81.5L1113.8,96.4L1113.8,96.4z"/>
		<path class="st4" d="M906.2,167.7c0,38.9,24.6,73.4,114.4,73.4c34.8,0,52.1-1.8,81.8-6.8V198c-7.3,12-27.7,30.4-71.1,30.4
			c-50.3,0-68.7-33.6-68.7-60.7S981,107,1031.3,107c43.4,0,63.8,18.5,71.1,30.4v-36.2c-29.7-5.1-47-6.8-81.8-6.8
			C930.7,94.4,906.2,128.8,906.2,167.7"/>
		<polygon class="st4" points="1458.7,96.4 1458.7,192 1352.5,96.4 1309.8,96.4 1309.8,239 1330.8,239 1330.8,147.5 1430.1,239 
			1479.8,239 1479.8,96.4 1479.4,96.4 1479.4,96.4 		"/>
	</g>
</g>
<g class="st5">
	<path class="st4" d="M113,324h81.3v11.6h-68.6V374H187v11.5h-61.3v39.3h69.3v11.6H113L113,324L113,324z"/>
	<path class="st4" d="M217.4,324h11.8l70.8,90.1V324h12.4v112.4h-10.2l-72.6-92.1v92.1h-12.4V324H217.4z"/>
	<path class="st4" d="M370.7,335.7H333V324h88.3v11.7h-37.7v100.7h-12.8L370.7,335.7L370.7,335.7z"/>
	<path class="st4" d="M441.9,324h81.3v11.6h-68.6V374h61.3v11.5h-61.3v39.3h69.3v11.6h-82.1V324z"/>
	<path class="st4" d="M546.3,324h48.4c13.8,0,24.9,4.1,31.9,11.3c5.5,5.5,8.7,13.3,8.7,22.1v0.3c0,18.6-12.8,29.6-30.5,32.7
		l34.5,45.9h-15.5l-32.6-43.7H559v43.7h-12.7L546.3,324L546.3,324z M593.5,381.2c16.9,0,28.9-8.7,28.9-23.1v-0.3
		c0-13.8-10.6-22.1-28.7-22.1H559v45.6H593.5z"/>
	<path class="st4" d="M687.7,335.7H650V324h88.3v11.7h-37.7v100.7h-12.8V335.7z"/>
	<path class="st4" d="M786,323.2h11.8l51.3,113.2h-13.6l-13.2-29.7h-61.2l-13.3,29.7h-13L786,323.2z M817.4,395.1l-25.6-57.2
		l-25.7,57.2H817.4z"/>
	<path class="st4" d="M869.2,324h12.7v112.4h-12.7V324z"/>
	<path class="st4" d="M911.6,324h11.8l70.8,90.1V324h12.4v112.4h-10.2l-72.6-92.1v92.1h-12.4V324H911.6z"/>
	<path class="st4" d="M1035.3,324h12.8l41,61.3l41-61.3h12.8v112.4h-12.7v-91.1l-41,60.2h-0.7l-41-60.1v90.9h-12.4V324H1035.3z"/>
	<path class="st4" d="M1171.5,324h81.3v11.6h-68.6V374h61.3v11.5h-61.3v39.3h69.3v11.6h-82.1V324z"/>
	<path class="st4" d="M1275.9,324h11.8l70.8,90.1V324h12.4v112.4h-10.2l-72.6-92.1v92.1h-12.4V324H1275.9z"/>
	<path class="st4" d="M1429.2,335.7h-37.7V324h88.3v11.7h-37.7v100.7h-12.8V335.7z"/>
</g>
</svg>
